<svg width="22" height="22" viewBox="0 0 22 22" fill="none" xmlns="http://www.w3.org/2000/svg">
<path d="M0 8.20278V7.95356C0 4.95005 2.17078 2.38825 5.13047 1.89497C7.05117 1.56884 9.08359 2.20735 10.4844 3.61028L11 4.12505L11.477 3.61028C12.9164 2.20735 14.9102 1.56884 16.8695 1.89497C19.8301 2.38825 22 4.95005 22 7.95356V8.20278C22 9.98598 21.2609 11.6918 19.9547 12.9079L12.1902 20.1567C11.868 20.4575 11.4426 20.625 11 20.625C10.5574 20.625 10.132 20.4575 9.80977 20.1567L2.04488 12.9079C0.740352 11.6918 1.28906e-05 9.98598 1.28906e-05 8.20278H0Z" fill="#F77152"/>
</svg>
