<svg width="32" height="40" viewBox="0 0 32 40" fill="none" xmlns="http://www.w3.org/2000/svg">
<g clip-path="url(#clip0_31_4)">
<path d="M31.794 1.50294C31.6624 1.39484 31.4908 1.33822 31.3135 1.35881L26.4568 1.75516C26.3767 1.02424 25.7017 0.452881 24.8723 0.452881C23.4021 0.452881 22.2008 1.52868 22.2008 2.85669V12.3175C22.2008 12.3175 22.2008 12.3535 22.2008 12.369C22.3953 14.2581 22.8701 15.8898 23.6653 17.3465C21.9835 22.7512 21.3084 29.3501 21.6116 37.5086C21.6631 38.9087 22.9159 39.9999 24.4718 39.9999C25.2555 39.9999 26.0163 39.7014 26.5541 39.1866C27.0918 38.6719 27.3721 37.9667 27.3206 37.2615C26.7714 29.5714 26.4683 23.2247 27.9613 17.4134C27.9956 17.2795 27.9727 17.1406 27.9041 17.017C26.9717 15.4522 26.5026 13.908 26.474 12.3072V12.0241L31.3135 12.4205C31.3135 12.4205 31.3535 12.4205 31.3707 12.4205C31.5251 12.4205 31.6796 12.369 31.794 12.2712C31.9255 12.1631 31.9999 12.0138 31.9999 11.8542V1.91987C31.9999 1.76031 31.9255 1.61103 31.794 1.50294ZM26.474 10.8968V2.88757L30.7414 2.53755V3.86557L27.8068 4.06632C27.4636 4.09205 27.2005 4.35971 27.2291 4.6737C27.252 4.97225 27.5265 5.19358 27.8526 5.19358C27.8698 5.19358 27.8869 5.19358 27.8984 5.19358L30.7414 4.99798V11.2469L26.474 10.8968Z" fill="#7C8C38"/>
<path d="M14.7929 35.7071H14.0035C15.262 27.6772 15.7597 18.8238 15.4222 10.0373C15.4222 10.027 15.4164 10.0167 15.4164 10.0064C15.4164 9.95492 15.3993 9.9086 15.3764 9.85712C15.3707 9.84168 15.365 9.82624 15.3592 9.8108C15.3306 9.75417 15.2906 9.7027 15.2391 9.65638L11.9613 6.70695C12.0414 6.52164 12.0814 6.31575 12.0471 6.115L11.2348 0.715441C11.2005 0.473516 10.9946 0.277917 10.7257 0.236739C8.82081 -0.0721021 6.8301 -0.0772494 4.81652 0.236739C4.54766 0.277917 4.336 0.473516 4.30168 0.715441L3.48938 6.115C3.46078 6.3209 3.48938 6.52164 3.57519 6.70695L0.285949 9.65638C0.234465 9.7027 0.200143 9.75417 0.16582 9.8108C0.1601 9.82624 0.15438 9.84168 0.148659 9.85712C0.131498 9.90345 0.114337 9.95492 0.108616 10.0012C0.108616 10.0115 0.102896 10.0218 0.102896 10.0321C-0.228888 18.6025 0.263068 27.461 1.52156 35.7019H0.726421C0.377476 35.7019 0.0971755 35.9542 0.0971755 36.2681V38.9808C0.0971755 39.2948 0.377476 39.547 0.726421 39.547H14.7929C15.1419 39.547 15.4222 39.2948 15.4222 38.9808V36.2681C15.4222 35.9542 15.1419 35.7019 14.7929 35.7019V35.7071ZM5.47436 1.28165C7.03032 1.0809 8.56911 1.0809 10.0507 1.28165L10.8058 6.26428C10.8058 6.26428 10.8058 6.29001 10.7886 6.3106C10.7715 6.33119 10.7486 6.33119 10.7429 6.33119H6.72714L7.3335 2.39862C7.37926 2.08978 7.13901 1.80668 6.79578 1.76035C6.45256 1.71917 6.13793 1.93536 6.08645 2.2442L5.4572 6.33119H4.78219C4.78219 6.33119 4.75359 6.33119 4.73643 6.3106C4.71927 6.29001 4.71927 6.27457 4.71927 6.26942L5.46865 1.2868L5.47436 1.28165ZM4.50762 7.45846H11.0174L13.277 9.49166H2.24233L4.50189 7.45846H4.50762ZM12.4704 18.8238C12.3503 18.9319 12.1901 18.9885 12.0242 18.9885C11.8583 18.9885 11.7039 18.9319 11.578 18.8238C9.47293 16.9296 6.04641 16.9296 3.94129 18.8238C3.69532 19.0451 3.30061 19.0451 3.05463 18.8238C2.80865 18.6025 2.80865 18.2473 3.05463 18.026C5.6517 15.6891 9.87336 15.6891 12.4647 18.026C12.7107 18.2473 12.7107 18.6025 12.4647 18.8238H12.4704ZM12.4704 26.4933C11.1719 27.6618 9.46721 28.2434 7.76253 28.2434C6.05785 28.2434 4.35316 27.6618 3.05463 26.4933C2.80865 26.272 2.80865 25.9168 3.05463 25.6955C3.30061 25.4742 3.69532 25.4742 3.94129 25.6955C6.04641 27.5897 9.47293 27.5897 11.578 25.6955C11.824 25.4742 12.2187 25.4742 12.4647 25.6955C12.7107 25.9168 12.7107 26.272 12.4647 26.4933H12.4704ZM14.1694 38.4197H1.35567V36.8395H14.1637V38.4197H14.1694Z" fill="#7C8C38"/>
</g>
<defs>
<clipPath id="clip0_31_4">
<rect width="32" height="40" fill="white"/>
</clipPath>
</defs>
</svg>
