<svg width="40" height="40" viewBox="0 0 40 40" fill="none" xmlns="http://www.w3.org/2000/svg">
<g clip-path="url(#clip0_30_479)">
<path d="M8.43506 11.9016C9.61096 10.7427 10.7241 9.66221 11.8687 8.51904C12.2136 8.83224 24.2862 20.859 29.9462 26.5279C30.3382 26.9194 30.7458 27.3265 31.0437 27.7807C31.6865 28.7986 31.5925 29.8321 30.7615 30.7091C29.9305 31.5704 28.9114 31.7113 27.8453 31.1162C27.5003 30.9283 27.1711 30.6464 26.8889 30.3646C20.8839 24.3825 8.60752 12.1208 8.43506 11.9016Z" fill="#7C8C38"/>
<path d="M13.5307 2.94431C13.5307 2.94431 6.50666 9.95993 2.99464 13.4521C2.25774 12.6221 1.34838 11.7921 0.705549 10.7899C-0.454673 8.97336 -0.156778 6.76532 1.39541 5.05839C2.41453 3.93088 3.51203 2.88167 4.59386 1.83246C7.00838 -0.500859 9.83054 -0.641798 12.2607 1.6602C12.7311 2.11434 13.5464 2.94431 13.5464 2.94431H13.5307Z" fill="#7C8C38"/>
<path d="M4.93872 15.3155C4.93872 15.3155 6.05191 14.1097 6.58498 13.5146C7.07102 13.9844 7.40027 14.3446 7.76088 14.6891C13.4366 20.358 19.0966 26.0112 24.7723 31.6801C25.1015 32.009 25.6816 32.4944 25.7914 32.8859C25.9168 33.34 25.8384 33.8255 25.4935 34.17C25.2583 34.4049 24.7723 34.5459 24.3176 34.4676C24.0197 34.4206 23.5807 33.9508 23.3298 33.7002C17.3719 27.7495 11.414 21.7987 5.45612 15.848C5.31501 15.707 4.93872 15.3312 4.93872 15.3312V15.3155Z" fill="#7C8C38"/>
<path d="M13.4521 6.81212C13.4521 6.81212 14.5653 5.60631 15.0984 5.01123C15.5844 5.48103 15.9137 5.8412 16.2743 6.18572C21.95 11.8546 27.61 17.5078 33.2857 23.1767C33.6149 23.5055 34.195 23.991 34.3048 24.3825C34.4302 24.8366 34.3518 25.3221 34.0069 25.6666C33.7717 25.9015 33.2857 26.0424 32.831 25.9641C32.5331 25.9172 32.0941 25.4474 31.8432 25.1968C25.8853 19.2461 19.9274 13.2953 13.9695 7.34455C13.8284 7.20361 13.4521 6.82778 13.4521 6.82778V6.81212Z" fill="#7C8C38"/>
<path d="M27.4534 36.1589C27.861 34.5459 28.6136 33.9038 30.1815 33.7316C32.204 33.4967 33.3486 31.9933 33.8189 29.5034C33.9443 28.7831 34.4304 28.188 35.0889 27.8904C35.4025 27.7495 35.7474 27.5929 36.1237 27.4207C37.0958 31.273 38.0365 35.0314 39.0399 39.0559C35.0732 38.0694 31.279 37.1298 27.469 36.1745L27.4534 36.1589Z" fill="#7C8C38"/>
</g>
<defs>
<clipPath id="clip0_30_479">
<rect width="40" height="40" fill="white"/>
</clipPath>
</defs>
</svg>
