<svg width="1920" height="1485" viewBox="0 0 1920 1485" fill="none" xmlns="http://www.w3.org/2000/svg">
<path d="M1920 1485V0C1903.1 15.2269 1890.56 35.7183 1884.07 58.2871C1848.38 39.5781 1809.88 45.3502 1772.07 52.1492C1737.54 54.144 1729.26 76.0991 1705.92 97.2987C1666.25 63.292 1636.29 64.8146 1636.29 64.8146C1636.76 32.4486 1609.89 8.01478 1579 4.47364C1561 1.2512 1542.84 3.09259 1527.67 12.394C1516.52 19.2402 1506.64 25.5788 1498.51 41.8445C1498.51 41.8445 1468.57 37.9846 1451.28 68.1079C1445.09 78.9084 1446.62 93.9582 1448.56 105.986C1448.56 105.986 1429.24 129.641 1454.08 149.885C1443.87 158.183 1437.43 167.047 1433.8 179.087C1427.31 179.5 1421.57 179.866 1415.45 180.256C1412.7 170.588 1404.52 160.237 1394.05 153.756C1384.04 147.571 1371.29 146.662 1371.29 146.662C1350.12 105.526 1284.85 99.0811 1262.22 141.787C1239.01 134.138 1217.9 151.041 1204.68 168.546C1188.88 186.606 1192.47 207.216 1203.11 227.07C1188.13 233.455 1173.87 239.723 1177.4 260.108C1157.24 259.282 1138.42 272.184 1130.5 290.539C1108.93 274.438 1087.61 271.098 1066.3 289.122C1010.94 253.546 939.331 294.977 937.761 350.844C934.434 304.868 896.022 265.515 848.795 272.337C831.448 275.642 815.682 282.748 799.551 290.007C745.869 240.833 656.785 274.19 641.455 345.119C617.5 342.747 572.138 350.821 552.525 376.883C539.178 354.315 503.115 356.168 490.358 367.983C501.38 309.366 439.308 246.77 378.64 237.197C325.843 231.13 284.906 255.281 247.887 288.296C235.744 260.769 217.453 239.959 189.851 227.554C209.452 178.792 176.422 128.791 135.508 102.87C142.034 76.7719 144.701 48.006 120.061 30.5836C88.0339 3.62376 47.0969 7.69607 10.1841 23.3597C7.05687 21.2822 3.63464 19.3582 0 17.6349V1485H1920V1485Z" fill="#F7F5F0"/>
</svg>
