<svg width="388" height="480" viewBox="0 0 388 480" fill="none" xmlns="http://www.w3.org/2000/svg">
<rect width="388" height="479.243" rx="20" fill="#F7F5F0"/>
<path d="M143.24 175.96V182.3H144.66V175.96H143.24ZM143.24 183.12V188.42H144.66V183.12H143.24ZM137.72 182.48V189.56H139.14V183.6H148.94V189.5H150.42V182.48H137.72ZM135.2 178.64V179.92H152.78V178.64H135.2ZM138.54 185.16V186.16H149.64V185.16H138.54ZM138.54 187.8V188.92H149.64V187.8H138.54ZM149 174.76C146.42 175.22 141.76 175.48 137.98 175.56C138.12 175.86 138.28 176.34 138.32 176.64C142.12 176.62 146.86 176.32 149.82 175.84L149 174.76ZM142.34 178.88C140.66 180.68 137.38 182.38 134.56 183.16C134.88 183.44 135.32 183.98 135.52 184.34C138.32 183.4 141.66 181.5 143.48 179.44L142.34 178.88ZM145.54 178.86L144.44 179.36C146.22 181.44 149.44 183.24 152.38 184.06C152.6 183.7 153 183.16 153.32 182.88C150.36 182.2 147.14 180.64 145.54 178.86ZM138.28 176.94C138.7 177.58 139.1 178.44 139.24 179.02L140.62 178.64C140.46 178.06 140.02 177.24 139.56 176.64L138.28 176.94ZM148.34 176.4C148.1 177.06 147.62 178.06 147.24 178.68L148.4 179.1C148.82 178.52 149.34 177.68 149.84 176.84L148.34 176.4ZM143.24 171.22V173.72H144.74V171.22H143.24ZM135.54 172.8V176.4H136.94V174.1H151V176.4H152.48V172.8H135.54ZM161.8 174.24V175.62H173.14V174.24H161.8ZM166.8 171.26V174.94H168.28V171.26H166.8ZM168.02 185.5C169.48 186.76 171.26 188.58 172.12 189.66L173.34 188.74C172.44 187.64 170.58 185.92 169.16 184.7L168.02 185.5ZM162.1 178.86C163.52 179.9 165.32 181.42 166.18 182.38L167.1 181.22C166.22 180.28 164.38 178.84 162.98 177.88L162.1 178.86ZM166.48 174.94C165.8 176.22 164.54 178.04 163.6 179.12L164.66 179.72C165.66 178.7 166.94 177.06 167.94 175.68L166.48 174.94ZM171.64 180.76C169.58 184.24 165.72 186.96 161.14 188.38C161.48 188.72 161.86 189.22 162.04 189.58C166.8 187.98 170.72 185.12 172.98 181.34L171.64 180.76ZM169.98 177.1C168.24 180.06 165.08 182.74 161.68 184.22C162.02 184.5 162.42 184.98 162.64 185.32C166.16 183.62 169.38 180.84 171.28 177.64L169.98 177.1ZM155.02 175.5V176.92H161.74V175.5H155.02ZM157.98 171.2V189.58H159.38V171.2H157.98ZM157.92 176.38C157.34 179.26 156 182.72 154.64 184.52C154.9 184.86 155.26 185.44 155.42 185.84C156.86 183.82 158.24 179.9 158.86 176.7L157.92 176.38ZM159.28 178.32L158.56 178.96C159.14 179.8 160.64 182.24 161.14 183.28L162 182.12C161.6 181.5 159.78 178.88 159.28 178.32ZM184.42 180.88V182.04H192.24V180.88H184.42ZM184.42 184.16V185.34H192.24V184.16H184.42ZM184.44 187.46V188.74H193.18V187.46H184.44ZM182.16 173.26V176.68H183.46V174.56H191.74V176.68H193.08V173.26H182.16ZM187.68 178.5V188.14H189.08V178.5H187.68ZM184.96 177.54H184.84L183.54 178.9V189.6H184.96V178.84H192.58V177.54H184.96ZM186.84 171.2C185.86 174.88 184.02 177.98 181.38 179.9C181.7 180.16 182.24 180.72 182.46 181C185.16 178.86 187.14 175.54 188.28 171.48L186.84 171.2ZM188.92 175.16C188.68 176.04 188.16 177.3 187.74 178.1L188.9 178.44C189.32 177.68 189.86 176.56 190.34 175.52L188.92 175.16ZM175.04 172.56V173.94H182.1V172.56H175.04ZM177.06 178.4V179.74H180.26V185.84H177.06V187.16H181.58V178.4H177.06ZM177.4 173.22C176.92 176.98 176.06 180.52 174.46 182.78C174.74 183.12 175.16 183.86 175.32 184.2C177.18 181.58 178.22 177.64 178.84 173.44L177.4 173.22ZM176.44 178.4V188.72H177.7V178.4H176.44ZM206.4 172.6C206.06 175.34 205.24 178.26 201.98 179.76C202.3 180 202.72 180.5 202.88 180.82C206.38 179.08 207.36 175.84 207.78 172.6H206.4ZM202.72 175.46C204.8 176.16 207.3 177.48 208.64 178.46L209.36 177.28C208.04 176.36 205.54 175.12 203.46 174.42L202.72 175.46ZM211.12 172.06V172.32C210.96 176.84 210.76 178.44 210.4 178.86C210.26 179.02 210.08 179.08 209.76 179.06C209.44 179.06 208.6 179.06 207.68 178.98C207.9 179.34 208.04 179.92 208.06 180.34C209 180.38 209.94 180.4 210.42 180.36C210.96 180.3 211.3 180.16 211.62 179.78C212.12 179.2 212.32 177.42 212.52 172.7C212.54 172.5 212.54 172.06 212.54 172.06H211.12ZM204.98 182.72V187.56C204.98 189.04 205.32 189.46 206.84 189.46C207.16 189.46 208.74 189.46 209.06 189.46C210.32 189.46 210.7 188.84 210.86 186.4C210.46 186.28 209.86 186.08 209.58 185.84C209.52 187.84 209.44 188.12 208.9 188.12C208.58 188.12 207.28 188.12 207.02 188.12C206.46 188.12 206.38 188.04 206.38 187.54V182.72H204.98ZM203.08 183.4C202.88 185.06 202.44 186.82 201.48 187.8L202.6 188.54C203.66 187.42 204.08 185.48 204.3 183.7L203.08 183.4ZM205.32 180.88C206.62 181.64 208.14 182.8 208.86 183.64L209.8 182.62C209.06 181.78 207.52 180.7 206.2 180L205.32 180.88ZM209.98 183.54C211.02 185 211.9 187.02 212.16 188.38L213.5 187.82C213.2 186.46 212.3 184.5 211.22 183.04L209.98 183.54ZM202.9 172.06V173.36H211.74V172.06H202.9ZM195.66 177.26V178.46H201.34V177.26H195.66ZM195.74 171.92V173.12H201.26V171.92H195.74ZM195.66 179.94V181.14H201.34V179.94H195.66ZM194.76 174.54V175.78H201.9V174.54H194.76ZM196.32 182.64V183.88H200.04V187.22H196.32V188.48H201.34V182.64H196.32ZM195.64 182.64V189.4H196.92V182.64H195.64ZM225.22 179.36C224.06 181.42 221.96 183.26 219.8 184.42C220.12 184.68 220.62 185.26 220.82 185.54C223.02 184.2 225.24 182.14 226.58 179.78L225.22 179.36ZM225.34 171.2C224.62 172.3 223.34 173.8 222.36 174.74L223.42 175.36C224.42 174.46 225.66 173.1 226.66 171.88L225.34 171.2ZM229.2 172.74C227.56 174.8 224.74 177.54 222.56 179.22L223.58 179.88C225.78 178.24 228.56 175.64 230.56 173.48L229.2 172.74ZM220.7 174.44C222.26 175.46 224.08 176.98 224.94 177.98L225.9 176.9C225.02 175.88 223.14 174.46 221.62 173.48L220.7 174.44ZM228.96 176.82C230.22 178.18 231.6 180.06 232.18 181.26L233.46 180.52C232.82 179.32 231.4 177.48 230.12 176.18L228.96 176.82ZM220.04 178.8L220.16 180.16C223.14 180.08 227.54 179.94 231.74 179.8L231.8 178.56C227.46 178.68 222.9 178.76 220.04 178.8ZM223.92 182.46L222.7 182.88C224.64 186.28 228.22 188.64 232.54 189.64C232.74 189.24 233.14 188.68 233.46 188.36C229.22 187.54 225.64 185.38 223.92 182.46ZM224.38 181.6L223.34 182.8H230.34V181.6H224.38ZM229.86 181.6V181.84C228.28 185.36 224.02 187.56 219.74 188.38C220.02 188.68 220.36 189.28 220.5 189.66C225.06 188.62 229.5 186.28 231.36 182L230.4 181.54L230.14 181.6H229.86ZM219.34 175.28C218.16 177.4 216.26 179.5 214.4 180.86C214.68 181.18 215.12 181.88 215.26 182.2C217.22 180.6 219.32 178.18 220.7 175.78L219.34 175.28ZM218.88 171.22C218 172.64 216.2 174.34 214.64 175.4C214.9 175.68 215.28 176.2 215.48 176.5C217.18 175.3 219.06 173.42 220.22 171.74L218.88 171.22ZM217.54 179V189.68H218.96V177.88L218.76 177.78L217.54 179ZM237.14 190.14C239.24 189.42 240.6 187.78 240.6 185.62C240.6 184.22 240 183.3 238.88 183.3C238.08 183.3 237.36 183.8 237.36 184.74C237.36 185.7 238.04 186.18 238.86 186.18C239.24 186.18 239.64 186.08 239.92 185.72L238.84 184.2L239.22 185.9C239.22 187.4 238.32 188.42 236.68 189.1L237.14 190.14ZM59.1 211.2V214.56H60.62V211.2H59.1ZM55.04 213.76V215.14H64.56V213.76H55.04ZM64.42 216.5V217.92H73.12V216.5H64.42ZM57.52 218H62.18V220.68H57.52V218ZM56.12 216.7V221.96H63.64V216.7H56.12ZM59.18 221.42V227.88C59.18 228.1 59.1 228.16 58.88 228.18C58.62 228.2 57.84 228.2 56.92 228.18C57.12 228.56 57.34 229.14 57.4 229.54C58.62 229.54 59.44 229.54 59.96 229.3C60.48 229.06 60.62 228.64 60.62 227.9V221.42H59.18ZM56.5 223.02C56.14 224.62 55.5 226.2 54.64 227.26C54.98 227.46 55.54 227.88 55.8 228.12C56.7 226.94 57.46 225.12 57.88 223.32L56.5 223.02ZM61.66 223.28C62.22 224.34 62.8 225.78 63.04 226.7L64.3 226.24C64.06 225.32 63.46 223.92 62.86 222.86L61.66 223.28ZM69.4 212.38C70.36 213.36 71.3 214.76 71.7 215.72L72.94 215.08C72.54 214.12 71.58 212.78 70.56 211.82L69.4 212.38ZM67.32 211.2V215.4C67.32 219.3 66.96 224.88 62.68 228.78C63.06 228.96 63.68 229.36 63.96 229.64C68.36 225.54 68.78 219.66 68.78 215.4V211.2H67.32ZM68.28 218.92V227.5C68.28 228.52 68.38 228.84 68.74 229.14C69.08 229.4 69.58 229.48 70.04 229.48C70.3 229.48 71 229.48 71.3 229.48C71.74 229.48 72.22 229.4 72.5 229.26C72.84 229.06 73.04 228.78 73.18 228.32C73.28 227.9 73.36 226.68 73.38 225.62C73 225.5 72.5 225.24 72.2 224.98C72.22 226.08 72.18 227.04 72.14 227.42C72.1 227.66 71.98 227.86 71.84 227.94C71.7 228.02 71.44 228.06 71.2 228.06C70.94 228.06 70.58 228.06 70.38 228.06C70.16 228.06 69.98 228.02 69.86 227.92C69.72 227.86 69.66 227.72 69.66 227.56V218.92H68.28ZM88.92 213.08V227.42C88.92 227.84 88.78 227.98 88.34 228C87.86 228.02 86.24 228.04 84.62 227.96C84.86 228.4 85.16 229.14 85.26 229.58C87.24 229.58 88.64 229.56 89.44 229.3C90.22 229.06 90.48 228.54 90.48 227.46V213.08H88.92ZM77.16 217.08V226.14H78.62V217.08H77.16ZM77.78 217.08V218.5H83.86V223.1H77.78V224.54H85.36V217.08H77.78ZM75.1 212.62V214.14H92.94V212.62H75.1ZM101.28 214.36C102.56 215.84 103.86 217.9 104.38 219.28L105.82 218.5C105.24 217.14 103.96 215.16 102.62 213.7L101.28 214.36ZM94.7 225.88L95.24 227.44C97.46 226.48 100.5 225.14 103.28 223.86L102.94 222.4C99.94 223.72 96.74 225.08 94.7 225.88ZM106.7 223.24C108.62 225.2 111.02 227.9 112.14 229.56L113.42 228.38C112.24 226.74 109.76 224.14 107.86 222.26L106.7 223.24ZM109.48 212.24C108.58 220.94 106.46 225.84 99.54 228.36C99.92 228.68 100.52 229.34 100.74 229.66C107.74 226.74 110.08 221.64 111.1 212.4L109.48 212.24ZM97.14 212.3L97.48 225.52L99.02 225.46L98.68 212.24L97.14 212.3ZM121.48 221.36V222.72H133.14V221.36H121.48ZM126.16 212.76L125.48 213.88H131.26L131.58 212.76H126.16ZM129.16 218.76V227.84C129.16 228.12 129.06 228.18 128.76 228.2C128.42 228.22 127.36 228.22 126.16 228.18C126.36 228.6 126.56 229.22 126.62 229.62C128.24 229.62 129.22 229.6 129.8 229.36C130.42 229.12 130.6 228.68 130.6 227.84V218.76H129.16ZM126.96 211.24C125.78 213.02 123.52 214.84 121.04 215.92C121.34 216.14 121.78 216.58 122 216.84C124.52 215.62 126.94 213.72 128.4 211.66L126.96 211.24ZM122.86 224.14C123.8 225.04 124.8 226.32 125.22 227.16L126.46 226.38C126 225.54 124.96 224.32 124.02 223.44L122.86 224.14ZM124.96 214.66C126.2 215.38 127.62 216.5 128.28 217.28L129.14 216.46C128.46 215.68 127 214.62 125.76 213.94L124.96 214.66ZM122.62 216.18C123.8 216.98 125.14 218.16 125.76 219L126.7 218.24C126.06 217.4 124.7 216.26 123.5 215.5L122.62 216.18ZM114.8 221.26V222.58H120.06V221.26H114.8ZM119.42 211.22V229.6H120.82V211.22H119.42ZM115.9 221.76V223.02C115.9 224.58 115.72 227.08 114.62 228.92C114.98 229.06 115.52 229.4 115.78 229.64C117.02 227.64 117.22 224.8 117.22 223.06V221.76H115.9ZM131.04 212.76V213C129.54 216.68 125.48 219.06 121.54 220C121.8 220.26 122.14 220.76 122.28 221.1C126.52 219.96 130.72 217.5 132.5 213.16L131.58 212.7L131.32 212.76H131.04ZM115.66 212.1V218.3H120.26V216.94H117V212.1H115.66ZM135.22 219.42V220.92H152.84V219.42H135.22ZM136.66 214.48V215.98H151.46V214.48H136.66ZM143.18 211.22V229.6H144.74V211.22H143.18ZM142.78 220.18C141.06 223.02 137.74 225.88 134.66 227.22C135.02 227.54 135.5 228.12 135.76 228.5C138.86 226.92 142.18 223.92 144.08 220.74L142.78 220.18ZM145.14 220.18L143.9 220.72C145.82 223.88 149.14 226.94 152.22 228.5C152.48 228.1 152.96 227.52 153.32 227.22C150.24 225.88 146.88 223 145.14 220.18ZM155.44 214V215.46H172.7V214H155.44ZM163.16 211.22V229.6H164.72V211.22H163.16ZM163.34 220.1C161.54 223.14 158.08 226.06 154.74 227.42C155.08 227.72 155.56 228.32 155.8 228.7C159.18 227.12 162.64 224.02 164.6 220.6L163.34 220.1ZM164.64 220.14L163.38 220.66C165.32 224.08 168.72 227.2 172.16 228.74C172.42 228.32 172.9 227.72 173.28 227.4C169.82 226.08 166.4 223.2 164.64 220.14ZM158.1 219.06C159.06 219.9 160.26 221.1 160.88 221.82L161.9 220.8C161.28 220.08 160.04 218.94 159.1 218.14L158.1 219.06ZM158.94 215.94C158.34 218.52 157.08 220.7 155.26 222.06C155.62 222.3 156.2 222.78 156.44 223.04C158.3 221.5 159.7 219.12 160.4 216.2L158.94 215.94ZM167.72 219.1C169.08 220.2 170.88 221.74 171.74 222.7L172.8 221.66C171.9 220.74 170.06 219.24 168.72 218.22L167.72 219.1ZM168.42 215.94C167.98 218.18 167.02 220.14 165.56 221.36C165.92 221.54 166.56 221.96 166.84 222.2C168.26 220.8 169.34 218.7 169.86 216.18L168.42 215.94ZM176.62 214.42V215.76H181.3V226.14H176.62V227.5H182.7V214.42H176.62ZM175.72 214.42V229.1H177.12V214.42H175.72ZM176.52 219.98V221.32H182.04V219.98H176.52ZM178.78 211.16C178.62 212.2 178.24 213.72 177.9 214.68L179.1 214.98C179.5 214.08 180 212.7 180.4 211.46L178.78 211.16ZM185.54 214.36V215.76H191.68V214.36H185.54ZM191.16 214.36V214.68C190.88 223.5 190.56 226.82 189.9 227.54C189.68 227.8 189.44 227.86 189.04 227.86C188.58 227.86 187.38 227.84 186.08 227.74C186.36 228.14 186.54 228.76 186.58 229.2C187.7 229.26 188.88 229.3 189.56 229.22C190.26 229.16 190.72 228.98 191.16 228.4C191.96 227.42 192.24 224.32 192.56 215.14C192.56 214.92 192.56 214.36 192.56 214.36H191.16ZM185.96 211.12C185.32 213.9 184.22 216.66 182.86 218.42C183.22 218.62 183.84 219.04 184.1 219.28C185.48 217.38 186.66 214.44 187.4 211.46L185.96 211.12ZM185.04 219.56C186.14 221.02 187.48 223 188.08 224.22L189.36 223.42C188.72 222.24 187.34 220.3 186.2 218.88L185.04 219.56ZM203.2 211.22V213.88H204.74V211.22H203.2ZM195.74 213V216.98H197.2V214.38H210.84V216.98H212.36V213H195.74ZM198.3 216.38V217.7H209.56V216.38H198.3ZM200.92 219.38C204.8 222.34 204.88 226.86 203.46 227.88C203.06 228.22 202.62 228.26 202.08 228.26C201.62 228.26 200.94 228.24 200.2 228.16C200.46 228.58 200.6 229.2 200.64 229.6C201.26 229.64 201.9 229.66 202.38 229.66C203.28 229.66 203.84 229.52 204.52 228.98C206.58 227.54 206.48 221.96 202.04 218.68L200.92 219.38ZM203.92 216.68C202.1 218.38 198.66 219.74 195.6 220.48C195.86 220.76 196.26 221.38 196.42 221.66C199.54 220.76 203.1 219.22 205.16 217.22L203.92 216.68ZM202.5 220.5C201.02 221.72 198 223.14 195.74 223.76C196.04 224.06 196.36 224.58 196.54 224.92C198.84 224.1 201.84 222.54 203.5 221.18L202.5 220.5ZM203.98 222.56C202.1 224.5 198.22 226.58 195.04 227.42C195.32 227.76 195.66 228.3 195.84 228.68C199.04 227.62 202.94 225.42 205.02 223.32L203.98 222.56ZM205.82 216.9L204.58 217.16C205.78 222.18 208.14 226.24 212.08 228.04C212.32 227.62 212.78 227.04 213.12 226.74C209.32 225.22 206.92 221.4 205.82 216.9ZM210.96 218.38C209.82 219.4 207.88 220.76 206.52 221.56L207.46 222.48C208.88 221.72 210.76 220.48 212.12 219.38L210.96 218.38ZM222.96 211.82C222.82 214.48 222.82 224.1 214.66 228.26C215.12 228.6 215.62 229.06 215.88 229.44C224.16 224.94 224.46 214.96 224.62 211.82H222.96ZM224.56 212.22L223.12 212.36C223.26 214.2 223.82 225.38 232.3 229.44C232.54 229.02 233 228.52 233.44 228.18C225.2 224.4 224.62 213.78 224.56 212.22ZM235.56 219.08V222.94H236.96V220.34H251.1V222.94H252.58V219.08H235.56ZM241.36 211.54V218.04H246.68V211.54H245.28V216.88H242.7V211.54H241.36ZM235.16 213.62V214.84H252.86V213.62H235.16ZM248.42 211.48V216.62C248.42 217.94 248.72 218.3 250 218.3C250.26 218.3 251.26 218.3 251.52 218.3C252.52 218.3 252.88 217.78 253 215.88C252.62 215.8 252.1 215.6 251.82 215.4C251.78 216.9 251.7 217.12 251.34 217.12C251.14 217.12 250.38 217.12 250.2 217.12C249.84 217.12 249.78 217.06 249.78 216.62V211.48H248.42ZM238.34 211.48V214.08C238.34 215.32 238.02 216.94 235.3 217.84C235.58 218.08 235.96 218.52 236.14 218.82C239.18 217.64 239.72 215.7 239.72 214.08V211.48H238.34ZM243.18 220.12V229.58H244.66V220.12H243.18ZM237.54 222.38V228.44H239V223.62H249.74V222.38H237.54ZM249.18 222.38V226.84C249.18 227.06 249.1 227.14 248.8 227.14C248.52 227.16 247.46 227.16 246.32 227.12C246.52 227.5 246.74 228.04 246.8 228.44C248.32 228.44 249.28 228.44 249.9 228.22C250.5 228 250.64 227.58 250.64 226.86V222.38H249.18ZM261.48 218H266.34V222.6H261.48V218ZM260.06 216.66V223.92H267.84V216.66H260.06ZM255.64 212.02V229.58H257.18V213.54H270.76V229.58H272.36V212.02H255.64ZM256.5 227.1V228.52H271.68V227.1H256.5ZM283.2 211.22V213.88H284.74V211.22H283.2ZM275.74 213V216.98H277.2V214.38H290.84V216.98H292.36V213H275.74ZM278.3 216.38V217.7H289.56V216.38H278.3ZM280.92 219.38C284.8 222.34 284.88 226.86 283.46 227.88C283.06 228.22 282.62 228.26 282.08 228.26C281.62 228.26 280.94 228.24 280.2 228.16C280.46 228.58 280.6 229.2 280.64 229.6C281.26 229.64 281.9 229.66 282.38 229.66C283.28 229.66 283.84 229.52 284.52 228.98C286.58 227.54 286.48 221.96 282.04 218.68L280.92 219.38ZM283.92 216.68C282.1 218.38 278.66 219.74 275.6 220.48C275.86 220.76 276.26 221.38 276.42 221.66C279.54 220.76 283.1 219.22 285.16 217.22L283.92 216.68ZM282.5 220.5C281.02 221.72 278 223.14 275.74 223.76C276.04 224.06 276.36 224.58 276.54 224.92C278.84 224.1 281.84 222.54 283.5 221.18L282.5 220.5ZM283.98 222.56C282.1 224.5 278.22 226.58 275.04 227.42C275.32 227.76 275.66 228.3 275.84 228.68C279.04 227.62 282.94 225.42 285.02 223.32L283.98 222.56ZM285.82 216.9L284.58 217.16C285.78 222.18 288.14 226.24 292.08 228.04C292.32 227.62 292.78 227.04 293.12 226.74C289.32 225.22 286.92 221.4 285.82 216.9ZM290.96 218.38C289.82 219.4 287.88 220.76 286.52 221.56L287.46 222.48C288.88 221.72 290.76 220.48 292.12 219.38L290.96 218.38ZM308.8 213.24H310.9V215.4H308.8V213.24ZM305.72 213.24H307.74V215.4H305.72V213.24ZM302.7 213.24H304.66V215.4H302.7V213.24ZM301.4 212.1V216.54H312.24V212.1H301.4ZM302.74 216.5C302.4 217.42 301.68 218.76 301.16 219.58L302.02 220.02C302.58 219.24 303.3 218.06 303.9 217.02L302.74 216.5ZM304.6 218.3C303.8 219.82 302.38 221.98 301.28 223.26L302.08 223.72C303.22 222.48 304.64 220.46 305.7 218.84L304.6 218.3ZM300.4 219.52C301.22 220.26 302.2 221.34 302.62 222.06L303.34 221.04C302.9 220.36 301.9 219.36 301.08 218.62L300.4 219.52ZM304.52 225.18C304.9 226.16 305.24 227.44 305.36 228.24L306.36 227.86C306.26 227.1 305.86 225.86 305.46 224.88L304.52 225.18ZM304.18 221.86C304.74 222.72 305.28 223.92 305.46 224.68L306.38 224.24C306.16 223.5 305.6 222.36 305.04 221.48L304.18 221.86ZM300.34 223.04L300.44 224.26C301.94 224.18 303.76 224.1 305.66 223.98L305.68 222.88C303.66 222.94 301.74 223 300.34 223.04ZM302.72 223.44V229.62H303.92V223.44H302.72ZM300.9 224.88C300.64 226.1 300.22 227.34 299.6 228.24C299.92 228.36 300.44 228.6 300.68 228.76C301.22 227.84 301.74 226.46 302.06 225.14L300.9 224.88ZM307.86 216.64C307.28 218.46 306.4 220.34 305.36 221.62C305.64 221.82 306.12 222.28 306.32 222.48C307.4 221.1 308.44 218.98 309.08 216.96L307.86 216.64ZM308 219.3H307.72L306.8 220.4V229.58H308V220.52H312.92V219.3H308ZM310.72 216.74C310.46 217.64 309.94 218.98 309.54 219.8L310.5 220.18C310.94 219.4 311.46 218.2 311.94 217.16L310.72 216.74ZM309.7 219.8V228.16H310.84V219.8H309.7ZM307.4 222.1V223.22H312.72V222.1H307.4ZM307.4 224.8V225.92H312.76V224.8H307.4ZM307.22 227.58V228.74H313.26V227.58H307.22ZM296.18 213.16V214.52H298.82V222.98H296.18V224.36H300.06V213.16H296.18ZM295.44 213.16V226.02H296.68V213.16H295.44ZM323.34 223.18H324.64L325.04 215.42L325.1 213.04H322.88L322.94 215.42L323.34 223.18ZM324 228.1C324.7 228.1 325.28 227.6 325.28 226.8C325.28 226 324.7 225.46 324 225.46C323.28 225.46 322.7 226 322.7 226.8C322.7 227.6 323.28 228.1 324 228.1Z" fill="#4C4C4C"/>
<path d="M123.52 112.4V116.72H144.28V112.4H123.52ZM116.08 119.6V124.12H151.92V119.6H116.08ZM125.76 123.2C125.16 128.68 124.08 132.4 114.92 134.44C116 135.44 117.24 137.44 117.72 138.72C128.28 135.92 130.2 130.64 130.96 123.2H125.76ZM136.08 122.44V132.28C136.08 136.6 137.2 138 141.88 138C142.8 138 146.08 138 147 138C150.8 138 152.08 136.48 152.56 130.64C151.32 130.32 149.24 129.56 148.28 128.8C148.12 133 147.88 133.68 146.56 133.68C145.8 133.68 143.2 133.68 142.56 133.68C141.16 133.68 140.92 133.48 140.92 132.2V122.44H136.08ZM131.32 101.08V108.32H136.44V101.08H131.32ZM116.8 104.92V114.44H121.68V109.44H146V114.44H151.16V104.92H116.8ZM161.24 116.08V120.48H170.48V116.08H161.24ZM168.64 116.08V116.8C168.56 124.56 168.4 127.36 167.92 128C167.6 128.4 167.24 128.48 166.68 128.48C166.04 128.48 164.68 128.48 163.24 128.32C163.96 129.52 164.48 131.4 164.56 132.8C166.44 132.84 168.16 132.84 169.24 132.68C170.4 132.48 171.2 132.12 172 131.12C172.92 129.88 173.12 126.32 173.28 117.84C173.28 117.28 173.32 116.08 173.32 116.08H168.64ZM180.68 103.56C182.92 104.84 185.76 106.8 187.08 108.2L190.16 104.96C188.72 103.64 185.76 101.8 183.56 100.64L180.68 103.56ZM185.4 113.84C182.64 123.12 177.28 130.36 169.6 134.48C170.6 135.44 172.36 137.44 173.08 138.44C181 133.56 186.88 125.44 190.24 115L185.4 113.84ZM161.52 107.04V111.76H192.36V107.04H161.52ZM158.32 107.04V118.76C158.32 124 158.04 131 154.96 135.8C156.08 136.36 158.24 138.12 159.04 139.08C162.68 133.68 163.36 124.8 163.36 118.8V107.04H158.32ZM174.56 101.08C174.68 119.32 177.92 138.32 186.64 138.32C190.4 138.32 192 136.52 192.76 129.08C191.48 128.6 189.76 127.48 188.68 126.36C188.44 131.4 187.96 133.44 187.04 133.44C183 133.44 179.32 117.4 179.6 101.08H174.56ZM217.92 104.24C217.32 109.24 216.12 114.76 209.64 117.84C210.6 118.6 211.84 120.16 212.36 121.24C219.72 117.36 221.48 110.76 222.24 104.24H217.92ZM211 111.08C214.92 112.32 219.68 114.68 222.28 116.56L224.56 112.88C221.88 111.16 217.2 108.96 213.24 107.76L211 111.08ZM227.04 102.6V103.32C226.76 111.72 226.4 114.76 225.76 115.52C225.44 115.92 225.08 116.04 224.56 116C223.96 116 222.76 116 221.4 115.88C222.04 117.04 222.52 118.84 222.56 120.16C224.32 120.2 225.96 120.2 226.92 120.04C228.08 119.88 228.84 119.52 229.6 118.52C230.68 117.24 231.08 113.48 231.48 104.36C231.52 103.8 231.52 102.6 231.52 102.6H227.04ZM215.4 124.16V133C215.4 137 216.16 138.32 219.88 138.32C220.64 138.32 222.48 138.32 223.2 138.32C226.08 138.32 227.24 136.96 227.68 131.68C226.48 131.36 224.6 130.68 223.76 129.96C223.64 133.68 223.48 134.16 222.72 134.16C222.32 134.16 221 134.16 220.64 134.16C219.88 134.16 219.8 134.04 219.8 132.92V124.16H215.4ZM211.32 125.72C210.96 129 210.16 132.32 208.52 134.32L212.04 136.48C213.96 134.12 214.72 130.32 215.08 126.72L211.32 125.72ZM216.28 121.4C218.84 122.88 221.88 125.16 223.28 126.8L226.24 123.68C224.76 122 221.6 119.92 219.04 118.64L216.28 121.4ZM225.12 126.36C227.08 129.44 228.72 133.68 229.16 136.48L233.36 134.76C232.84 131.92 231.08 127.84 229 124.8L225.12 126.36ZM211.52 102.6V106.6H229.08V102.6H211.52ZM197 113.32V116.92H208.72V113.32H197ZM197.12 102.28V105.92H208.6V102.28H197.12ZM197 118.76V122.4H208.72V118.76H197ZM195.16 107.68V111.48H209.8V107.68H195.16ZM199.08 124.32V128.12H204.76V132.68H199.08V136.48H208.76V124.32H199.08ZM196.92 124.32V138.08H200.84V124.32H196.92ZM238.04 104.52V108.04H269.72V104.52H238.04ZM240.08 109.44V112.76H267.84V109.44H240.08ZM236.12 114.16V117.68H271.72V114.16H236.12ZM245.64 124.24V126.72H261.28V124.24H245.64ZM251.44 106.44V115.88H256.4V106.44H251.44ZM251.6 118.4V122H256.16V118.4H251.6ZM243.36 102.24C244.28 103.36 245.2 104.96 245.52 106L249.96 104.36C249.52 103.32 248.56 101.88 247.6 100.88L243.36 102.24ZM260 101C259.56 101.96 258.76 103.44 258.08 104.48L262.2 105.56C263.04 104.72 264.16 103.48 265.28 102L260 101ZM261.76 115.16L258 116.48C260.6 120.68 265 124.24 269.92 125.96C270.6 124.8 271.96 123.12 272.92 122.2C268.28 120.96 263.96 118.28 261.76 115.16ZM255.36 129.2L251.6 130C255.08 135.32 261 137.8 269.52 138.68C270.08 137.4 271.2 135.56 272.16 134.6C264.24 134.28 258.24 132.68 255.36 129.2ZM246.24 120.04V122.96H260.12V128.04H246.24V130.96H264.96V120.04H246.24ZM243.04 120.04V135.6H247.8V120.04H243.04ZM238.8 134.24L239.28 138.36C243.96 137.96 250.36 137.4 256.44 136.84V133.08C250 133.56 243.2 134 238.8 134.24ZM266.52 129.32C264.96 130.72 262.24 132.64 260.24 133.8L262.96 135.52C265.08 134.48 267.76 132.96 270.04 131.32L266.52 129.32ZM245.68 115.28C243.56 118.6 239.36 121.32 234.84 122.92C235.84 123.76 237.44 125.48 238.12 126.4C242.76 124.32 247.44 120.88 250.12 116.56L245.68 115.28Z" fill="#4C4C4C"/>
<path d="M211.854 345.747C210.845 345.107 209.911 343.797 208.828 342.3C206.087 338.51 202.354 333.316 193.26 333.316C184.167 333.316 180.433 338.51 177.693 342.3C176.609 343.797 175.676 345.092 174.682 345.747C166.191 351.222 162.066 357.726 162.066 365.649C162.066 372.793 168.826 379.796 175.721 379.796C183.188 379.796 186.486 377.378 188.894 375.616C190.445 374.477 191.469 373.729 193.275 373.729C195.082 373.729 196.106 374.477 197.657 375.616C200.065 377.378 203.347 379.796 210.83 379.796C217.725 379.796 224.485 372.793 224.485 365.649C224.485 357.726 220.36 351.222 211.869 345.747H211.854Z" fill="#EDDCCE"/>
<path d="M165.604 335.484C163.195 326.188 156.752 320.152 150.955 321.774C148.005 322.6 145.776 325.205 144.692 329.12C143.714 332.676 143.774 336.981 144.873 341.239C145.972 345.497 147.989 349.256 150.564 351.83C152.777 354.06 155.216 355.215 157.595 355.215C158.242 355.215 158.889 355.121 159.522 354.949C165.333 353.343 167.998 344.78 165.589 335.484H165.604Z" fill="#EDDCCE"/>
<path d="M176.926 331.288C183.911 331.288 189.376 322.444 189.376 311.136C189.376 299.828 183.896 291 176.926 291C169.955 291 164.475 299.844 164.475 311.152C164.475 322.46 169.94 331.304 176.926 331.304V331.288Z" fill="#EDDCCE"/>
<path d="M209.61 331.288C216.596 331.288 222.061 322.444 222.061 311.136C222.061 299.828 216.596 291 209.61 291C202.625 291 197.16 299.844 197.16 311.152C197.16 322.46 202.625 331.304 209.61 331.304V331.288Z" fill="#EDDCCE"/>
<path d="M235.581 321.774C232.63 320.947 229.438 322.07 226.623 324.893C224.064 327.467 222.031 331.226 220.932 335.484C219.833 339.742 219.758 344.047 220.752 347.603C221.836 351.518 224.049 354.138 227.015 354.949C227.647 355.121 228.294 355.214 228.927 355.214C234.181 355.214 239.525 349.537 241.663 341.239C244.072 331.943 241.407 323.38 235.596 321.774H235.581Z" fill="#EDDCCE"/>
</svg>
